<svg width="24" height="24" viewBox="0 0 24 24" fill="none" xmlns="http://www.w3.org/2000/svg">
<path d="M16.5 14C19.3585 14 21.093 15.0646 22.1201 16.2627C23.1676 17.4848 23.5 18.8696 23.5 19.5C23.5 19.7875 23.4296 19.9699 23.3496 20.0898C23.2676 20.2129 23.1546 20.3011 23.0264 20.3652C22.8963 20.4303 22.7602 20.4654 22.6523 20.4834C22.5999 20.4921 22.557 20.4961 22.5293 20.498L22.5 20.5H10.5L10.4707 20.498C10.443 20.4961 10.4001 20.4921 10.3477 20.4834C10.2398 20.4654 10.1037 20.4303 9.97363 20.3652C9.84545 20.3011 9.73244 20.2129 9.65039 20.0898C9.57043 19.9699 9.5 19.7875 9.5 19.5C9.5 18.8696 9.83238 17.4848 10.8799 16.2627C11.907 15.0646 13.6415 14 16.5 14ZM7.10352 14.5107C4.62505 14.6031 3.1425 15.5592 2.26074 16.5879C1.28888 17.7196 1 18.9905 1 19.5V20H6.49609L6.5 19.5039C6.51178 18.0866 6.91169 16.7013 7.6543 15.498L7.87988 15.4961V14.0078C8.09041 14.015 8.30103 14.0264 8.51074 14.0469H8.5127C8.79573 14.0734 9.07689 14.1153 9.35547 14.1699C9.13959 14.3802 8.9372 14.5987 8.75 14.8252C7.61353 16.1992 7.00218 17.8549 7 19.4912C6.99398 19.8324 7.0355 20.1712 7.11816 20.5H1.5C1.07707 20.5 0.851676 20.3946 0.728516 20.2715C0.605356 20.1483 0.5 19.9229 0.5 19.5C0.5 18.8696 0.832377 17.4848 1.87988 16.2627C2.90003 15.0726 4.6182 14.0152 7.44238 14.001L7.10352 14.5107ZM16.5 14.5C13.7833 14.5 12.1874 15.5026 11.2607 16.5879C10.2936 17.7132 10.0019 18.9775 10 19.4922L9.99805 19.9111L10.4102 19.9863L10.4434 19.9922L10.4883 20H22.5029L22.5381 19.9951L22.5586 19.9922L22.584 19.9883L22.6094 19.9824L22.6211 19.9795L23.0029 19.8838L23 19.4902C22.9964 19.0113 22.7422 17.8695 21.9131 16.8008L21.7393 16.5879C20.8117 15.5048 19.2162 14.5 16.5 14.5ZM6.75 4.25C7.81087 4.25 8.82798 4.67173 9.57812 5.42188C10.3283 6.17202 10.75 7.18913 10.75 8.25C10.75 9.31087 10.3283 10.328 9.57812 11.0781C8.82798 11.8283 7.81087 12.25 6.75 12.25C5.68913 12.25 4.67202 11.8283 3.92188 11.0781C3.17173 10.328 2.75 9.31087 2.75 8.25C2.75 7.18913 3.17173 6.17202 3.92188 5.42188C4.67202 4.67173 5.68913 4.25 6.75 4.25ZM16.5 3.5C17.5609 3.5 18.578 3.92173 19.3281 4.67188C20.0783 5.42202 20.5 6.43913 20.5 7.5C20.5 8.02517 20.3962 8.54506 20.1953 9.03027C19.9943 9.51558 19.6996 9.95669 19.3281 10.3281C18.9567 10.6996 18.5156 10.9943 18.0303 11.1953C17.5451 11.3962 17.0252 11.5 16.5 11.5C15.9748 11.5 15.4549 11.3962 14.9697 11.1953C14.4844 10.9943 14.0433 10.6996 13.6719 10.3281C13.3004 9.95669 13.0057 9.51558 12.8047 9.03027C12.6038 8.54506 12.5 8.02517 12.5 7.5C12.5 6.43913 12.9217 5.42202 13.6719 4.67188C14.422 3.92173 15.4391 3.5 16.5 3.5ZM6.75 4.75C5.82174 4.75 4.93177 5.11901 4.27539 5.77539C3.61901 6.43177 3.25 7.32174 3.25 8.25C3.25 9.17826 3.61901 10.0682 4.27539 10.7246C4.93177 11.381 5.82174 11.75 6.75 11.75C7.67826 11.75 8.56823 11.381 9.22461 10.7246C9.88099 10.0682 10.25 9.17826 10.25 8.25C10.25 7.32174 9.88099 6.43177 9.22461 5.77539C8.56823 5.11901 7.67826 4.75 6.75 4.75ZM16.5 4C15.5717 4 14.6818 4.36901 14.0254 5.02539C13.369 5.68177 13 6.57174 13 7.5C13 8.42826 13.369 9.31823 14.0254 9.97461C14.6818 10.631 15.5717 11 16.5 11C17.4283 11 18.3182 10.631 18.9746 9.97461C19.631 9.31823 20 8.42826 20 7.5C20 6.57174 19.631 5.68177 18.9746 5.02539C18.3182 4.36901 17.4283 4 16.5 4Z" fill="black" stroke="#8A38F5"/>
</svg>
