<svg width="24" height="24" viewBox="0 0 24 24" fill="none" xmlns="http://www.w3.org/2000/svg">
<path d="M12.498 18.498L13.0869 18.3926C13.7894 18.2663 14.6123 18.0134 15.2734 17.5742C15.9419 17.1302 16.498 16.4536 16.498 15.5C16.498 14.5464 15.9419 13.8698 15.2734 13.4258C14.6123 12.9866 13.7894 12.7337 13.0869 12.6074L12.498 12.502V18.498ZM10.9092 5.60742C10.2067 5.73369 9.38382 5.98664 8.72266 6.42578C8.05424 6.86977 7.49805 7.54644 7.49805 8.5C7.49805 9.42293 8.04481 10.0943 8.70312 10.542C9.35759 10.987 10.1798 11.2564 10.9072 11.3906L11.498 11.5V5.50195L10.9092 5.60742ZM11.498 12.4932L11.0654 12.4346C9.96155 12.2846 8.79918 11.8779 7.92578 11.2129C7.06355 10.5564 6.49805 9.66456 6.49805 8.5C6.49805 7.27036 7.08513 6.37591 7.95312 5.73535C8.8355 5.08425 9.99784 4.7079 11.0635 4.56641L11.498 4.50879V2.5H12.498V4.50879L12.9326 4.56641C13.9983 4.7079 15.1606 5.08425 16.043 5.73535C16.7886 6.28561 17.325 7.02358 17.4619 8H16.4434C16.2882 7.3047 15.8184 6.78779 15.2734 6.42578C14.6123 5.98664 13.7894 5.73369 13.0869 5.60742L12.498 5.50195V11.5088L12.9326 11.5664C13.9983 11.7079 15.1606 12.0843 16.043 12.7354C16.911 13.3759 17.498 14.2704 17.498 15.5C17.498 16.7296 16.9109 17.6238 16.043 18.2646C15.1606 18.9161 13.9983 19.2931 12.9326 19.4346L12.498 19.4922V21.5H11.498V19.4941L11.0596 19.4395C9.84284 19.2897 8.686 18.8557 7.8457 18.1807C7.14298 17.616 6.66567 16.8881 6.53516 16H7.55371C7.70407 16.6571 8.14271 17.1654 8.66895 17.5322C9.31629 17.9835 10.1429 18.2591 10.9131 18.3926L11.498 18.4941V12.4932Z" fill="#1B1B1B" stroke="#1B1B1B"/>
</svg>
