<svg width="19" height="14" viewBox="0 0 19 14" fill="none" xmlns="http://www.w3.org/2000/svg">
<path d="M11.834 6.83337C11.834 7.49642 11.5706 8.1323 11.1018 8.60114C10.6329 9.06998 9.99703 9.33337 9.33398 9.33337C8.67094 9.33337 8.03506 9.06998 7.56622 8.60114C7.09738 8.1323 6.83398 7.49642 6.83398 6.83337C6.83398 6.17033 7.09738 5.53445 7.56622 5.06561C8.03506 4.59677 8.67094 4.33337 9.33398 4.33337C9.99703 4.33337 10.6329 4.59677 11.1018 5.06561C11.5706 5.53445 11.834 6.17033 11.834 6.83337Z" stroke="#9C9C9C" stroke-width="2" stroke-linecap="round" stroke-linejoin="round"/>
<path d="M1 6.83333C2.33333 3.41917 5.44667 1 9.33333 1C13.22 1 16.3333 3.41917 17.6667 6.83333C16.3333 10.2475 13.22 12.6667 9.33333 12.6667C5.44667 12.6667 2.33333 10.2475 1 6.83333Z" stroke="#9C9C9C" stroke-width="2" stroke-linecap="round" stroke-linejoin="round"/>
</svg>
