<svg width="24" height="24" viewBox="0 0 24 24" fill="none" xmlns="http://www.w3.org/2000/svg">
<path d="M21.3754 6C21.0701 6.00008 20.7694 6.0747 20.4995 6.21737C20.2296 6.36005 19.9987 6.56647 19.8267 6.81869C19.6547 7.07092 19.5469 7.36132 19.5127 7.66468C19.4784 7.96803 19.5188 8.27516 19.6302 8.55938L15.6847 12.5048C15.2449 12.3317 14.7558 12.3317 14.316 12.5048L11.4955 9.68438C11.6072 9.40009 11.6477 9.09283 11.6136 8.78931C11.5795 8.48579 11.4717 8.1952 11.2997 7.94281C11.1277 7.69042 10.8966 7.48387 10.6266 7.34113C10.3566 7.19839 10.0558 7.12377 9.75035 7.12377C9.44492 7.12377 9.14411 7.19839 8.87408 7.34113C8.60405 7.48387 8.37299 7.69042 8.20097 7.94281C8.02896 8.1952 7.92121 8.48579 7.88709 8.78931C7.85297 9.09283 7.89351 9.40009 8.00519 9.68438L3.30972 14.3798C2.90872 14.2225 2.46578 14.2081 2.05538 14.339C1.64499 14.4698 1.29217 14.738 1.05624 15.0984C0.820315 15.4588 0.715676 15.8895 0.759919 16.3179C0.804162 16.7464 0.994588 17.1466 1.29918 17.4512C1.60377 17.7558 2.00394 17.9462 2.43242 17.9904C2.8609 18.0347 3.29154 17.93 3.65194 17.6941C4.01235 17.4582 4.28052 17.1054 4.41138 16.695C4.54225 16.2846 4.52781 15.8416 4.37051 15.4406L9.06597 10.7452C9.5058 10.9183 9.9949 10.9183 10.4347 10.7452L13.2552 13.5656C13.1435 13.8499 13.103 14.1572 13.1371 14.4607C13.1712 14.7642 13.279 15.0548 13.451 15.3072C13.623 15.5596 13.8541 15.7661 14.1241 15.9089C14.3941 16.0516 14.6949 16.1262 15.0004 16.1262C15.3058 16.1262 15.6066 16.0516 15.8766 15.9089C16.1466 15.7661 16.3777 15.5596 16.5497 15.3072C16.7217 15.0548 16.8295 14.7642 16.8636 14.4607C16.8977 14.1572 16.8572 13.8499 16.7455 13.5656L20.691 9.62016C20.9477 9.72102 21.2236 9.76399 21.4988 9.74601C21.7741 9.72803 22.042 9.64953 22.2834 9.51613C22.5248 9.38272 22.7339 9.19768 22.8956 8.97421C23.0573 8.75073 23.1677 8.49433 23.2189 8.22329C23.2702 7.95225 23.261 7.67324 23.192 7.40616C23.123 7.13907 22.996 6.8905 22.8199 6.67816C22.6438 6.46582 22.4231 6.29495 22.1734 6.17773C21.9237 6.0605 21.6512 5.99982 21.3754 6Z" fill="black"/>
</svg>
