<svg width="24" height="24" viewBox="0 0 24 24" fill="none" xmlns="http://www.w3.org/2000/svg">
<path d="M11.9971 3.75C13.1433 3.75001 14.2118 3.96699 15.21 4.39746C16.222 4.83355 17.095 5.42244 17.8359 6.16211C18.5766 6.90154 19.1659 7.77341 19.6025 8.78516C20.033 9.78262 20.25 10.8508 20.25 11.9971C20.25 13.1433 20.0333 14.2118 19.6035 15.21C19.1675 16.2223 18.5785 17.0959 17.8379 17.8359C17.0967 18.5765 16.224 19.1652 15.2139 19.6025C14.219 20.0332 13.1511 20.2506 12.0029 20.25C10.9992 20.25 10.0555 20.0844 9.16699 19.7549L8.79004 19.6035C7.77813 19.1668 6.90496 18.5781 6.16406 17.8379C5.42317 17.0976 4.83405 16.2253 4.39746 15.2148C3.96719 14.219 3.75 13.1506 3.75 12.0029C3.75001 10.9986 3.91615 10.0549 4.24609 9.16699L4.39746 8.79004C4.83358 7.77796 5.4221 6.90495 6.16113 6.16406C6.89976 5.42361 7.77179 4.83407 8.78418 4.39746C9.78236 3.96702 10.8509 3.75 11.9971 3.75ZM15.6143 7.44043L9.80762 9.3252L9.44336 9.44336L9.3252 9.80762L7.44043 15.6143L6.98633 17.0127L8.38574 16.5596L14.1934 14.6758L14.5576 14.5576L14.6758 14.1934L16.5596 8.38574L17.0127 6.98633L15.6143 7.44043ZM12.0039 11.6348C12.1188 11.6348 12.1892 11.6663 12.2607 11.7383C12.3341 11.8132 12.3662 11.8874 12.3662 12.0039C12.3662 12.118 12.335 12.1881 12.2627 12.2598C12.1875 12.3338 12.1131 12.3662 11.9961 12.3662C11.8817 12.3662 11.8112 12.3345 11.7393 12.2617C11.6669 12.1873 11.6348 12.1129 11.6348 11.9961C11.6348 11.8809 11.6659 11.81 11.7383 11.7383C11.8126 11.6662 11.8873 11.6348 12.0039 11.6348Z" stroke="#3B770E" stroke-width="1.5"/>
</svg>
