<svg width="24" height="24" viewBox="0 0 24 24" fill="none" xmlns="http://www.w3.org/2000/svg">
<path d="M15.2908 8.85L10.5608 13.59L8.71084 11.73C8.52254 11.5417 8.26714 11.4359 8.00084 11.4359C7.73454 11.4359 7.47915 11.5417 7.29084 11.73C7.10254 11.9183 6.99675 12.1737 6.99675 12.44C6.99675 12.5719 7.02272 12.7024 7.07318 12.8242C7.12364 12.9461 7.1976 13.0568 7.29084 13.15L9.85084 15.71C9.94381 15.8037 10.0544 15.8781 10.1763 15.9289C10.2981 15.9797 10.4288 16.0058 10.5608 16.0058C10.6929 16.0058 10.8236 15.9797 10.9454 15.9289C11.0673 15.8781 11.1779 15.8037 11.2708 15.71L16.7108 10.27C16.8041 10.1768 16.878 10.0661 16.9285 9.94425C16.979 9.82243 17.0049 9.69186 17.0049 9.56C17.0049 9.42814 16.979 9.29757 16.9285 9.17575C16.878 9.05393 16.8041 8.94324 16.7108 8.85C16.6176 8.75676 16.5069 8.6828 16.3851 8.63234C16.2633 8.58188 16.1327 8.55591 16.0008 8.55591C15.869 8.55591 15.7384 8.58188 15.6166 8.63234C15.4948 8.6828 15.3841 8.75676 15.2908 8.85ZM12.0008 2C10.6876 2 9.38726 2.25866 8.17401 2.7612C6.96075 3.26375 5.85836 4.00035 4.92977 4.92893C3.05441 6.8043 2.00084 9.34784 2.00084 12C1.99294 14.309 2.79238 16.5481 4.26084 18.33L2.26084 20.33C2.12208 20.4706 2.02809 20.6492 1.99071 20.8432C1.95334 21.0372 1.97426 21.2379 2.05084 21.42C2.1339 21.5999 2.26855 21.7511 2.43769 21.8544C2.60683 21.9577 2.80284 22.0083 3.00084 22H12.0008C14.653 22 17.1965 20.9464 19.0719 19.0711C20.9473 17.1957 22.0008 14.6522 22.0008 12C22.0008 9.34784 20.9473 6.8043 19.0719 4.92893C17.1965 3.05357 14.653 2 12.0008 2ZM12.0008 20H5.41084L6.34084 19.07C6.52709 18.8826 6.63164 18.6292 6.63164 18.365C6.63164 18.1008 6.52709 17.8474 6.34084 17.66C5.03143 16.352 4.21602 14.6305 4.03353 12.7888C3.85105 10.947 4.31279 9.09901 5.34007 7.55952C6.36735 6.02004 7.89663 4.88436 9.66736 4.34597C11.4381 3.80759 13.3407 3.8998 15.0511 4.60691C16.7614 5.31402 18.1737 6.59227 19.0473 8.22389C19.9209 9.85551 20.2017 11.7395 19.842 13.555C19.4822 15.3705 18.5042 17.005 17.0744 18.1802C15.6446 19.3554 13.8516 19.9985 12.0008 20Z" fill="black"/>
</svg>
