<svg width="22" height="22" viewBox="0 0 22 22" fill="none" xmlns="http://www.w3.org/2000/svg">
<path d="M3.38477 21.5H18.6152C20.2049 21.5 21.5 20.2049 21.5 18.6152V7.61523C21.5 7.50662 21.4591 7.34443 21.335 7.11621C21.2126 6.89144 21.027 6.63459 20.7832 6.34473C20.2932 5.76215 19.6204 5.1074 18.874 4.37598H18.873L17.624 3.12695V3.12598C16.8929 2.37989 16.238 1.70696 15.6553 1.2168C15.3653 0.972917 15.1087 0.78744 14.8838 0.665039C14.6555 0.540797 14.4933 0.500038 14.3848 0.5H3.38477C1.79514 0.5 0.5 1.79514 0.5 3.38477V18.6152C0.5 20.2049 1.79514 21.5 3.38477 21.5ZM3.38477 20.8076C2.80333 20.8076 2.24512 20.5772 1.83398 20.166C1.42285 19.7549 1.19238 19.1967 1.19238 18.6152V3.38477C1.19238 2.80333 1.42285 2.24512 1.83398 1.83398C2.24512 1.42285 2.80333 1.19238 3.38477 1.19238H14.6855L14.7461 1.20801C15.2898 1.34681 15.5368 1.76309 15.6396 2.16504C15.7343 2.53536 15.7305 2.97647 15.7305 3.33105V5.92285C15.7305 6.11294 15.8871 6.26953 16.0771 6.26953H18.6152C19.0104 6.26953 19.5253 6.2648 19.9365 6.40234C20.156 6.47583 20.3855 6.60092 20.5566 6.82031C20.7313 7.04423 20.8076 7.31758 20.8076 7.61523V18.6152C20.8076 19.1967 20.5772 19.7549 20.166 20.166C19.7549 20.5772 19.1967 20.8076 18.6152 20.8076H3.38477ZM5.82031 10.501L5.84375 10.499L5.86719 10.501C5.87791 10.5015 5.88869 10.5015 5.89941 10.501L5.91113 10.5H14.3848C14.4764 10.5 14.564 10.4632 14.6289 10.3984C14.6937 10.3336 14.7303 10.2459 14.7305 10.1543C14.7305 10.0625 14.6938 9.9741 14.6289 9.90918C14.564 9.84442 14.4764 9.80766 14.3848 9.80762H5.89941L5.87695 9.80566C5.78462 9.79703 5.69251 9.82562 5.62109 9.88477C5.54972 9.94393 5.50478 10.0288 5.49609 10.1211C5.48747 10.2133 5.51517 10.3056 5.57422 10.377C5.6324 10.4471 5.71612 10.4912 5.80664 10.501C5.81119 10.5009 5.81577 10.5012 5.82031 10.501ZM5.82031 14.7314L5.84375 14.7305L5.86719 14.7314C5.87792 14.7319 5.88868 14.7319 5.89941 14.7314L5.91113 14.7305H16.0771C16.1689 14.7304 16.2564 14.6938 16.3213 14.6289C16.3861 14.564 16.4228 14.4765 16.4229 14.3848C16.4229 14.293 16.3862 14.2046 16.3213 14.1396C16.2565 14.075 16.1687 14.0381 16.0771 14.0381H5.89941L5.87695 14.0361C5.78469 14.0275 5.69249 14.0562 5.62109 14.1152C5.5498 14.1743 5.50485 14.2594 5.49609 14.3516C5.48748 14.4437 5.51527 14.5361 5.57422 14.6074C5.63136 14.6763 5.71313 14.7207 5.80176 14.7314C5.80794 14.7315 5.81414 14.7317 5.82031 14.7314Z" fill="black" stroke="#1B1B1B"/>
</svg>
